<svg xmlns="http://www.w3.org/2000/svg" width='32' height='32' viewBox="0 0 511.99 511.99" xml:space="preserve">
    <path style="fill:#e6e9ed" d="M501.318 367.996H330.649v-221.3l94.217 12.718 41.094 82.975 40.124 20.07a10.68 10.68 0 0 1 5.906 9.538v85.343c0 5.876-4.781 10.656-10.672 10.656z"/>
    <path style="fill:#f6bb42" d="M159.997 122.665H74.655c-5.891 0-10.656-4.773-10.656-10.664s4.766-10.664 10.656-10.664h85.342c5.875 0 10.656 4.773 10.656 10.664s-4.782 10.664-10.656 10.664z"/>
    <path style="fill:#4fc2e9" d="m465.96 242.39-41.094-82.976-94.217-12.718v95.694z"/>
    <path style="fill:#ffce54" d="M458.647 112.001H10.656C4.765 112.001 0 116.774 0 122.665v234.676c0 5.875 4.766 10.655 10.656 10.655h319.993c5.891 0 10.672-4.78 10.672-10.655V176h117.326c5.891 0 10.672-4.773 10.672-10.664v-42.671c0-5.89-4.781-10.664-10.672-10.664z"/>
    <path style="fill:#434a54" d="M159.997 303.998c-29.421 0-53.343 23.921-53.343 53.343 0 29.405 23.921 53.312 53.343 53.312 29.406 0 53.327-23.906 53.327-53.312 0-29.422-23.921-53.343-53.327-53.343zM415.992 303.998c-29.421 0-53.343 23.921-53.343 53.343 0 29.405 23.922 53.312 53.343 53.312 29.405 0 53.327-23.906 53.327-53.312 0-29.422-23.922-53.343-53.327-53.343z"/>
    <path style="fill:#3bafda" d="M362.645 175.995h21.344v66.39h-21.344z"/>
    <path style="fill:#f5f7fa" d="M167.528 364.871c-4.156 4.156-10.921 4.156-15.078 0-4.172-4.155-4.172-10.921 0-15.093 4.156-4.156 10.922-4.156 15.078 0 4.172 4.172 4.172 10.938 0 15.093zM423.522 364.871c-4.156 4.156-10.921 4.156-15.077 0-4.172-4.155-4.172-10.921 0-15.093 4.156-4.156 10.921-4.156 15.077 0 4.172 4.172 4.172 10.938 0 15.093z"/>
    <path style="fill:#e6e9ed" d="M95.998 176H10.656C4.765 176 0 180.773 0 186.664v170.677c0 5.875 4.766 10.655 10.656 10.655h85.342c5.875 0 10.656-4.78 10.656-10.655V186.664c0-5.891-4.781-10.664-10.656-10.664z"/>
    <path style="fill:#434a54" d="M28.874 268.874c-4.172 4.155-10.922 4.155-15.094 0-4.156-4.164-4.156-10.922 0-15.086 4.172-4.164 10.922-4.164 15.094 0 4.157 4.164 4.157 10.922 0 15.086z"/>
    <path style="fill:#4fc2e9" d="M287.995 176H138.841c-5.891 0-10.656 4.773-10.656 10.664v63.999c0 5.891 4.766 10.672 10.656 10.672h149.154c5.874 0 10.655-4.781 10.655-10.672v-63.999c0-5.891-4.781-10.664-10.655-10.664z"/>
    <path style="fill:#3bafda" d="M202.745 175.995h21.343v85.33h-21.343z"/>
</svg>